<?xml version="1.0" standalone="no"?>
<!DOCTYPE svg PUBLIC "-//W3C//DTD SVG 1.1//EN" "http://www.w3.org/Graphics/SVG/1.1/DTD/svg11.dtd" >
<svg xmlns="http://www.w3.org/2000/svg">
<metadata>
Created by FontForge 20120731 at Tue Apr 25 15:55:49 2017
 By admin
</metadata>
<defs>
<font id="iconfont" horiz-adv-x="1024" >
  <font-face 
    font-family="iconfont"
    font-weight="500"
    font-stretch="normal"
    units-per-em="1024"
    panose-1="2 0 6 3 0 0 0 0 0 0"
    ascent="896"
    descent="-128"
    x-height="792"
    bbox="25 -108 1005 871"
    underline-thickness="0"
    underline-position="0"
    unicode-range="U+0078-E632"
  />
<missing-glyph 
 />
    <glyph glyph-name=".notdef" 
 />
    <glyph glyph-name=".notdef" 
 />
    <glyph glyph-name=".null" horiz-adv-x="0" 
 />
    <glyph glyph-name="nonmarkingreturn" horiz-adv-x="341" 
 />
    <glyph glyph-name="x" unicode="x" horiz-adv-x="1001" 
d="M281 543q-27 -1 -53 -1h-83q-18 0 -36.5 -6t-32.5 -18.5t-23 -32t-9 -45.5v-76h912v41q0 16 -0.5 30t-0.5 18q0 13 -5 29t-17 29.5t-31.5 22.5t-49.5 9h-133v-97h-438v97zM955 310v-52q0 -23 0.5 -52t0.5 -58t-10.5 -47.5t-26 -30t-33 -16t-31.5 -4.5q-14 -1 -29.5 -0.5
t-29.5 0.5h-32l-45 128h-439l-44 -128h-29h-34q-20 0 -45 1q-25 0 -41 9.5t-25.5 23t-13.5 29.5t-4 30v167h911zM163 247q-12 0 -21 -8.5t-9 -21.5t9 -21.5t21 -8.5q13 0 22 8.5t9 21.5t-9 21.5t-22 8.5zM316 123q-8 -26 -14 -48q-5 -19 -10.5 -37t-7.5 -25t-3 -15t1 -14.5
t9.5 -10.5t21.5 -4h37h67h81h80h64h36q23 0 34 12t2 38q-5 13 -9.5 30.5t-9.5 34.5q-5 19 -11 39h-368zM336 498v228q0 11 2.5 23t10 21.5t20.5 15.5t34 6h188q31 0 51.5 -14.5t20.5 -52.5v-227h-327z" />
    <glyph glyph-name="tubiaozhizuomoban" unicode="&#xe601;" 
d="M713 790q122 -60 191 -175q10 -17 19 -36q4 -7 10.5 -9.5t13.5 0.5t10 10t-1 14q-10 20 -21 39q-75 126 -207 190q-7 3 -14 0t-10 -10q-3 -6 -0.5 -13t9.5 -10zM986.5 400q-7.5 0 -13 -5.5t-5.5 -12.5q0 -92 -36 -176t-96.5 -144.5t-144.5 -96.5t-176 -36t-176 35.5
t-144.5 96.5t-96.5 145t-36 176t36 176t96.5 144.5t144.5 96.5t176 36q7 0 12.5 5.5t5.5 13t-5.5 12.5t-12.5 5q-99 0 -190 -38.5t-156.5 -104.5t-104.5 -156.5t-39 -190t39 -190t104.5 -156t156.5 -104.5t190 -39t190 39t156.5 104.5t104.5 156t39 190.5q0 7 -5.5 12.5
t-13 5.5zM624 835zM606 835.5q0 -7.5 5 -13t12.5 -5.5t13 5.5t5.5 13t-5.5 12.5t-13 5t-12.5 -5t-5 -12.5zM968 491zM950 490.5q0 -7.5 5.5 -13t13 -5.5t12.5 5.5t5 13t-5 13t-12.5 5.5t-13 -5.5t-5.5 -13zM433 558q-15 0 -29 -8q-28 -16 -28 -49v-238q0 -33 28.5 -49.5
t57.5 -0.5l206 119q28 17 28 50t-28 49l-206 119q-14 8 -29 8zM657 382q0 -10 -9 -16l-206 -119q-9 -5 -18 0t-9 16v238q0 10 9 15q9 6 18 0l206 -119q9 -5 9 -15z" />
    <glyph glyph-name="tubiaozhizuomoban1" unicode="&#xe602;" 
d="M901 552q-15 -6 -22 9t-17 32q-63 105 -174 159q-14 7 -8 21q3 7 9.5 9.5t12.5 -0.5q120 -58 188 -172q11 -18 19 -36q3 -6 0.5 -12.5t-8.5 -9.5zM937 398q-7 0 -12 -5t-5 -12q0 -111 -55 -206t-150 -150t-206.5 -55t-206.5 55t-150 150t-55 206.5t55 206.5t150 150
t206 55q7 0 12 5t5 12t-5 11.5t-12 4.5q-90 0 -172.5 -35t-142 -94.5t-94.5 -142t-35 -173t35 -173t94.5 -142t142 -94.5t173 -35t173 35t142 94.5t94.5 142t35 173.5q0 6 -4.5 11t-11.5 5zM591 793q0 -7 4.5 -11.5t11.5 -4.5t12 4.5t5 11.5t-5 12t-12 5t-11.5 -5t-4.5 -12z
M904 480q0 -7 4.5 -11.5t11.5 -4.5t12 4.5t5 11.5t-5 12t-12 5t-11.5 -5t-4.5 -12zM363 264q14 6 24 -5q39 -45 126 -45t126 45q10 11 24 5q8 -3 10 -10.5t-3 -13.5q-51 -59 -157 -59t-157 59q-5 6 -3 13.5t10 10.5zM453 447q-8 -6 -14 5q-23 45 -74.5 45t-74.5 -45
q-6 -11 -14 -5q-4 3 -5.5 10.5t1.5 13.5q30 59 92.5 59t92.5 -59q3 -6 1.5 -13.5t-5.5 -10.5zM766 447q-8 -6 -14 5q-23 45 -74.5 45t-74.5 -45q-6 -11 -14 -5q-4 3 -5.5 10.5t1.5 13.5q30 59 92.5 59t92.5 -59q3 -6 1.5 -13.5t-5.5 -10.5z" />
    <glyph glyph-name="tubiaozhizuomoban2" unicode="&#xe603;" 
d="M898 553q-14 -6 -21 8q-8 16 -17 32q-63 105 -173 158q-14 7 -8 22q3 6 9.5 8.5t12.5 -0.5q118 -57 187 -171q10 -18 19 -35q3 -6 0.5 -12.5t-9.5 -9.5zM934 400q-7 0 -11.5 -5t-4.5 -12q0 -111 -55 -205t-149.5 -149t-205 -55t-205 55t-149.5 149t-55 205t55 205.5
t149.5 149t204.5 54.5q7 0 12 5t5 12t-5 11.5t-11 4.5q-90 0 -172 -35t-141 -94t-94 -141t-35 -171.5t35 -171.5t94 -141t141 -94t171.5 -35t171.5 35t141 94t94 141t35 171q0 7 -4.5 12t-11.5 5zM607 792zM590 792.5q0 -6.5 5 -11.5t11.5 -5t11.5 5t5 11.5t-5 11.5t-11.5 5
t-11.5 -5t-5 -11.5zM918 482zM901 481.5q0 -6.5 5 -11.5t11.5 -5t11.5 5t5 11.5t-5 11.5t-11.5 5t-11.5 -5t-5 -11.5zM574 588q-37 0 -64.5 -24.5t-32.5 -60.5q-1 -2 -1 -5v-238l-92 91q-4 4 -11 4t-11.5 -4.5t-4.5 -11.5t4 -11l120 -119q12 -11 23 0l119 118q12 12 0 23.5
t-23 -0.5l-91 -91v231q0 27 19 46t46 19t46.5 -19t19.5 -46q0 -7 4.5 -12t11.5 -5t11.5 5t4.5 12q0 40 -28.5 69t-69.5 29z" />
    <glyph glyph-name="tubiaozhizuomoban3" unicode="&#xe604;" 
d="M907 556q-15 -6 -21 8q-9 18 -18 33q-64 106 -175 160q-14 7 -8 22q3 6 9.5 8.5t12.5 -0.5q121 -58 189 -173q11 -17 20 -36q3 -6 0.5 -12.5t-9.5 -9.5zM943 401q-7 0 -11.5 -5t-4.5 -12q0 -112 -55.5 -207.5t-151 -151t-208 -55.5t-208 55.5t-151 151t-55.5 208
t55.5 208t151 151t207.5 55.5q7 0 12 4.5t5 11.5t-5 12t-12 5q-91 0 -173.5 -35.5t-142.5 -95.5t-95.5 -143t-35.5 -174t35.5 -173.5t95.5 -142.5t142.5 -95.5t173.5 -35.5t174 35.5t143 95.5t95.5 142.5t35.5 173.5q0 7 -5 12t-12 5zM612 799zM595 798.5q0 -6.5 5 -11.5
t12 -5t11.5 5t4.5 11.5t-4.5 11.5t-11.5 5t-12 -5t-5 -11.5zM927 484zM910 484q0 -7 5 -12t12 -5t11.5 5t4.5 12t-4.5 11.5t-11.5 4.5t-12 -4.5t-5 -11.5zM512.5 340q29.5 0 50.5 17t21 40v129q0 24 -21 40.5t-50.5 16.5t-50.5 -16.5t-21 -40.5v-129q0 -23 21 -40t50.5 -17z
M469 526q0 12 13 20.5t30.5 8.5t30 -8.5t12.5 -20.5v-129q0 -11 -12.5 -19.5t-30 -8.5t-30.5 8.5t-13 19.5v129zM669 424q0 7 -4 11.5t-11 4.5q-12 0 -14 -12q-4 -49 -41 -82.5t-87 -33.5t-86.5 33.5t-41.5 82.5q-1 12 -14 12q-6 0 -10.5 -4.5t-3.5 -11.5q6 -55 46 -95
t96 -45v-87h-100q-6 0 -10 -4t-4 -10t4 -10t10 -4h229q6 0 10 4t4 10t-4 10t-10 4h-100v87q56 5 96 45t46 95z" />
    <glyph glyph-name="tubiaozhizuomoban4" unicode="&#xe605;" 
d="M932 402q-7 0 -11.5 -4.5t-4.5 -11.5q0 -111 -54.5 -205t-149 -148.5t-205 -54.5t-204.5 54.5t-148.5 148.5t-54.5 205t54.5 205t148.5 148.5t205 54.5q6 0 11 5t5 11.5t-5 11.5t-11 5q-90 0 -171.5 -35t-140.5 -94t-94 -141t-35 -171.5t35 -171t94 -140.5t140.5 -94
t171 -35t171.5 35t141 94t94 140.5t35 171.5q0 7 -5 11.5t-12 4.5zM606 794zM589 794q0 -7 5 -11.5t11.5 -4.5t11.5 4.5t5 11.5t-5 11.5t-11.5 4.5t-11.5 -4.5t-5 -11.5zM916 484zM900 483.5q0 -6.5 4.5 -11.5t11.5 -5t11.5 5t4.5 11.5t-4.5 11.5t-11.5 5t-11.5 -5
t-4.5 -11.5zM905 577q-9 19 -19 35q-68 113 -186 171q-2 1 -6 1q-3 2 -7 2q-6 0 -11 -5t-5 -12v-297q-39 44 -98 44q-54 0 -92.5 -38t-38.5 -92t38.5 -92.5t92.5 -38.5t92.5 38.5t38.5 92.5v3v3v2v350q97 -54 154 -149q9 -15 17 -32q7 -14 22 -8q6 3 8.5 9.5t-0.5 12.5z
M573 288q-41 0 -69.5 28.5t-28.5 69t28.5 69.5t69.5 29t69.5 -29t28.5 -69.5t-28.5 -69t-69.5 -28.5zM491 174q-60 0 -103.5 43t-43.5 103q0 7 -4.5 12t-11.5 5t-11.5 -5t-4.5 -12q0 -74 52.5 -126.5t126.5 -52.5q7 0 12 4.5t5 11.5t-5 12t-12 5z" />
    <glyph glyph-name="tubiaozhizuomoban5" unicode="&#xe606;" 
d="M903 554q-14 -7 -21 8q-8 17 -18 32q-63 105 -173 159q-15 7 -8 21q3 7 9.5 9.5t12.5 -0.5q119 -58 187 -172q10 -15 20 -35q3 -7 0.5 -13.5t-9.5 -8.5zM939 399q-7 0 -11.5 -4.5t-4.5 -11.5q0 -112 -55.5 -206.5t-150 -150t-206 -55.5t-206.5 55.5t-150 150t-55 206
t55 206.5t150 150t206 55q7 0 12 5t5 11.5t-5 11.5t-12 5q-90 0 -172 -35t-141.5 -94.5t-95 -142t-35.5 -172.5t35.5 -172.5t95 -142t141.5 -94.5t172.5 -35t172.5 35t141.5 94.5t95 142t35.5 172.5q0 7 -5 11.5t-12 4.5zM610 794zM594 794q0 -7 4.5 -11.5t11.5 -4.5
t11.5 4.5t4.5 11.5t-4.5 12t-11.5 5t-11.5 -5t-4.5 -12zM923 482zM906 481.5q0 -6.5 5 -11.5t11.5 -5t11.5 5t5 11.5t-5 11.5t-11.5 5t-11.5 -5t-5 -11.5zM501 188h-1q-22 1 -42 28l-124 152q-32 38 -24 86q4 31 29 59q26 26 60 27t60 -23l41 -35l33 32q26 26 60.5 27
t62.5 -23q26 -23 32 -60q9 -48 -22 -88l-119 -153q-23 -29 -46 -29zM401 507q-21 0 -38 -17q-18 -20 -21 -41q-5 -33 17 -60l126 -153q10 -15 16 -15q7 -1 20 16l119 153q22 28 16 62q-5 26 -22 41q-18 15 -39.5 14.5t-38.5 -17.5l-33 -32q-9 -10 -22 -10t-23 9l-40 35
q-17 15 -37 15z" />
    <glyph glyph-name="tubiaozhizuomoban6" unicode="&#xe607;" 
d="M900 553q-14 -6 -21 8q-8 18 -17 32q-63 104 -172 157q-14 7 -8 21q3 6 9.5 8.5t12.5 -0.5q118 -56 186 -169q10 -17 19 -35q3 -6 0.5 -12.5t-9.5 -9.5zM935.5 400q-6.5 0 -11.5 -4.5t-5 -11.5q0 -110 -54.5 -203.5t-148 -148t-203.5 -54.5t-204 54.5t-148.5 148
t-54.5 203.5t54.5 204t148.5 148.5t204 54.5q7 0 11.5 4.5t4.5 11.5t-4.5 11.5t-11.5 4.5q-89 0 -170.5 -34.5t-140.5 -93.5t-93.5 -140.5t-34.5 -170.5t34.5 -170.5t93.5 -140t140.5 -93.5t170.5 -35t170.5 35t140 93.5t93.5 140t35 170.5q0 7 -5 11.5t-11.5 4.5zM610 791z
M594 790.5q0 -6.5 5 -11.5t11.5 -5t11.5 5t5 11.5t-5 11.5t-11.5 5t-11.5 -5t-5 -11.5zM920 482zM903 482q0 -7 5 -11.5t11.5 -4.5t11.5 4.5t5 11.5t-5 11.5t-11.5 4.5t-11.5 -4.5t-5 -11.5zM431.5 531q-6.5 0 -11.5 -5t-5 -12v-260q0 -7 5 -11.5t11.5 -4.5t11.5 4.5t5 11.5
v260q0 7 -5 12t-11.5 5zM594 531q-7 0 -11.5 -5t-4.5 -12v-260q0 -7 4.5 -11.5t11.5 -4.5t11.5 4.5t4.5 11.5v260q0 7 -4.5 12t-11.5 5z" />
    <glyph glyph-name="tubiaozhizuomoban7" unicode="&#xe608;" 
d="M904 554q-15 -6 -22 8q-8 17 -17 32q-63 105 -173 159q-14 7 -8 21q3 6 9.5 8.5t12.5 -0.5q119 -57 187 -171q10 -17 19 -35q3 -6 0.5 -12.5t-8.5 -9.5zM939.5 401q-6.5 0 -11.5 -5t-5 -12q0 -111 -55 -205.5t-149.5 -149t-205.5 -54.5t-205.5 54.5t-149 149t-54.5 205.5
t54.5 205.5t149 149.5t205.5 55q7 0 12 4.5t5 11.5t-5 12t-12 5q-90 0 -171.5 -35.5t-141 -94.5t-94.5 -141t-35 -172t35 -171.5t94.5 -141t141.5 -94.5t171.5 -35t171.5 35t141.5 94t94.5 141t35 172q0 7 -5 12t-11.5 5zM612 794zM595 794q0 -7 5 -12t11.5 -5t11.5 5t5 12
t-5 11.5t-11.5 4.5t-11.5 -4.5t-5 -11.5zM923 482zM906 482.5q0 -6.5 5 -11.5t12 -5t11.5 5t4.5 11.5t-4.5 11.5t-11.5 5t-12 -5t-5 -11.5zM710 436l-101 77q-25 18 -52 4.5t-27 -43.5v-31l-106 83q-25 19 -52.5 5.5t-27.5 -43.5v-182q0 -31 28 -45q10 -5 21 -5q17 0 31 11
l106 83v-31q0 -30 27 -44q10 -5 22 -5q16 0 30 10l101 77q20 15 20 39.5t-20 39.5zM519 384l-116 -91q-8 -7 -17 -2.5t-9 15.5v182q0 10 9 14q3 2 7 2q6 0 10 -4l116 -91q7 -4 7 -12.5t-7 -12.5zM690 384l-101 -78q-8 -6 -17 -1.5t-9 14.5v155q0 10 9 14q3 2 7 2q5 0 10 -3
l101 -77q7 -5 7 -13q0 -9 -7 -13z" />
    <glyph glyph-name="tubiaozhizuomoban8" unicode="&#xe609;" 
d="M904 554q-15 -6 -22 8q-8 17 -17 32q-63 105 -173 159q-14 7 -8 21q3 6 9.5 8.5t12.5 -0.5q119 -57 187 -171q10 -17 19 -35q3 -6 0.5 -12.5t-8.5 -9.5zM939.5 401q-6.5 0 -11.5 -5t-5 -12q0 -111 -55 -205.5t-149.5 -149t-205.5 -54.5t-205.5 54.5t-149 149t-54.5 205.5
t54.5 205.5t149 149.5t205.5 55q7 0 12 4.5t5 11.5t-5 12t-12 5q-90 0 -171.5 -35.5t-141 -94.5t-94.5 -141t-35 -172t35 -171.5t94.5 -141t141.5 -94.5t171.5 -35t171.5 35t141.5 94t94.5 141t35 172q0 7 -5 12t-11.5 5zM612 794zM595 794q0 -7 5 -12t11.5 -5t11.5 5t5 12
t-5 11.5t-11.5 4.5t-11.5 -4.5t-5 -11.5zM923 482zM906 482.5q0 -6.5 5 -11.5t12 -5t11.5 5t4.5 11.5t-4.5 11.5t-11.5 5t-12 -5t-5 -11.5zM326 357l101 -77q25 -19 52 -5t27 44v31l106 -84q24 -18 52 -5t28 44v182q0 31 -28 44q-10 5 -22 5q-16 0 -30 -10l-106 -83v31
q0 30 -27 44q-11 5 -22 5q-17 0 -30 -10l-101 -78q-20 -15 -20 -39t20 -39zM516 409l116 91q9 7 18 2.5t9 -15.5v-182q0 -10 -9 -14q-4 -2 -8 -2q-5 0 -10 3l-116 91q-6 5 -6 13t6 13zM345 409l102 78q8 6 17 1.5t9 -14.5v-155q0 -10 -9 -15q-3 -2 -7 -2q-6 0 -10 4l-102 77
q-6 5 -6 13q0 9 6 13z" />
    <glyph glyph-name="tubiaozhizuomoban9" unicode="&#xe60a;" 
d="M907 554q-15 -6 -22 8q-7 16 -17 33q-64 105 -174 159q-15 7 -8 22q2 6 8.5 8.5t13.5 -0.5q119 -58 188 -172q10 -17 19 -36q3 -6 0.5 -12.5t-8.5 -9.5zM943 399q-7 0 -12 -4.5t-5 -11.5q0 -112 -55 -207.5t-150.5 -150.5t-207.5 -55t-207 55t-150.5 150.5t-55.5 207.5
t55.5 207t150.5 150.5t207 55.5q7 0 12 4.5t5 11.5t-5 12t-12 5q-90 0 -172.5 -35.5t-142.5 -95t-95.5 -142.5t-35.5 -173.5t35.5 -173t95.5 -142t142.5 -95t173 -35.5t173 35.5t142.5 95t95 142t35 173.5q0 7 -4.5 11.5t-11.5 4.5zM612 796zM596 796q0 -7 5 -12t11.5 -5
t11.5 5t5 12t-5 11.5t-11.5 4.5t-11.5 -4.5t-5 -11.5zM926 482zM910 482q0 -7 4.5 -12t11.5 -5t12 5t5 12t-5 11.5t-12 4.5t-11.5 -4.5t-4.5 -11.5zM671 257l-46 80v130h-1q-2 48 -37 81t-83 33t-82.5 -33.5t-36.5 -82.5v0v-5v0v-122q0 -1 -1 -1l-46 -80q-11 -20 2 -40
q11 -14 32 -14h139h1h0.5h0.5q7 0 12 4.5t5 11.5t-5 12t-12 5h-1h-1h-141q-2 0 -3 1.5t0 2.5l51 88v1v135q1 35 26.5 59.5t60.5 24.5q36 0 61 -26t25 -62h1v-132l51 -88q0 -1 -0.5 -2.5t-2.5 -1.5h-33v0h-3q-7 0 -11.5 -5t-4.5 -12t4.5 -11.5t11.5 -4.5h3v0h33q21 0 31 18
t0 36z" />
    <glyph glyph-name="tubiaozhizuomoban10" unicode="&#xe60c;" 
d="M884 551q-14 -6 -21 8q-7 16 -17 31q-61 103 -169 155q-14 7 -8 21q3 6 9.5 8.5t12.5 -0.5q116 -56 183 -167q10 -17 18 -35q3 -6 0.5 -12.5t-8.5 -8.5zM919.5 400q-6.5 0 -11.5 -4.5t-5 -11.5q0 -109 -53.5 -201t-146 -146t-201 -54t-201 54t-146.5 146t-54 201
t54 201.5t146.5 146t200.5 53.5q7 0 11.5 4.5t4.5 11.5t-4.5 11.5t-11.5 4.5q-88 0 -168 -34.5t-138 -92.5t-92.5 -138t-34.5 -168t34.5 -168t92.5 -138t138 -92.5t168 -34.5t168 34.5t138 92.5t92.5 138t34.5 168q0 7 -4.5 11.5t-11 4.5zM598 785zM582 785q0 -7 5 -11.5
t11.5 -4.5t11 4.5t4.5 11.5t-4.5 11.5t-11 4.5t-11.5 -4.5t-5 -11.5zM903 480zM887 480.5q0 -6.5 4.5 -11.5t11.5 -5t11.5 5t4.5 11.5t-4.5 11t-11.5 4.5t-11.5 -4.5t-4.5 -11zM695 400h-161v161q0 6 -4.5 11t-11 5t-11.5 -5t-5 -11v-161h-160q-7 0 -11.5 -4.5t-4.5 -11
t4.5 -11.5t11.5 -5h160v-160q0 -7 5 -11.5t11.5 -4.5t11 4.5t4.5 11.5v160h161q6 0 11 5t5 11.5t-5 11t-11 4.5z" />
    <glyph glyph-name="tubiaozhizuomoban11" unicode="&#xe60d;" 
d="M896 551q-15 -6 -22 8q-7 16 -17 32q-61 103 -170 155q-14 7 -7 21q2 7 8.5 9.5t12.5 -0.5q117 -57 184 -169q11 -17 19 -34q3 -7 0.5 -13t-8.5 -9zM930.5 400q-6.5 0 -11 -5t-4.5 -11q0 -110 -54 -203t-147 -147t-202.5 -54t-202.5 54t-147 147t-54 202.5t54 202.5
t147 147t202 54q7 0 11.5 4.5t4.5 11.5t-4.5 11.5t-11.5 4.5q-88 0 -168.5 -34.5t-139 -93t-93 -139t-34.5 -169t34.5 -169t93 -139t139 -93t169 -34.5t169 34.5t139 93t93 139t34.5 169.5q0 6 -5 11t-11.5 5zM608 787zM592 786.5q0 -6.5 4.5 -11t11.5 -4.5t11.5 4.5t4.5 11
t-4.5 11.5t-11.5 5t-11.5 -5t-4.5 -11.5zM915 480zM898 480.5q0 -6.5 5 -11.5t11.5 -5t11.5 5t5 11.5t-5 11t-11.5 4.5t-11.5 -4.5t-5 -11zM691 400h-355q-7 0 -11.5 -4.5t-4.5 -11t4.5 -11.5t11.5 -5h355q6 0 11 5t5 11.5t-5 11t-11 4.5z" />
    <glyph glyph-name="tubiaozhizuomoban12" unicode="&#xe60e;" 
d="M720 592v0l-49 8q-11 2 -16 12l-24 52v0q-5 10 -16 10q-7 0 -12.5 -5t-5.5 -12q0 -4 2 -8v0l25 -52q12 -27 42 -32l49 -7v0h2h1q7 0 12.5 5t5.5 12q-1 15 -16 17zM912 473q24 25 13 57.5t-45 37.5l-55 8v0l-1 0.5t-2 0.5q-7 0 -12 -5.5t-5 -12.5q0 -6 4 -11t11 -6v0
l55 -9q13 -2 17 -14t-5 -21l-154 -158q-20 -20 -15 -48l36 -220q2 -13 -9 -20.5t-22 -1.5l-183 101q-28 15 -55 0l-183 -101q-12 -7 -22.5 1t-8.5 21l36 220q4 28 -15 48l-154 158q-9 9 -5 21t17 14l209 32q29 5 42 32l92 196q6 12 19.5 12t18.5 -12l22 -46q0 -1 1 -1v-1v0
q5 -9 16 -9q7 0 12 5t5 12q0 4 -1 7v0l-23 48q-15 33 -50.5 33t-50.5 -33l-93 -196q-4 -10 -15 -12l-210 -32q-34 -5 -44.5 -37.5t13.5 -57.5l153 -157q8 -8 6 -18l-36 -221q-6 -34 23 -54.5t60 -3.5l183 102q10 5 21 0l183 -102q13 -7 27 -7q18 0 32 10q29 21 23 55
l-36 221q-1 10 6 18zM772 566zM754 566q0 -7 5.5 -12.5t12.5 -5.5t12 5.5t5 12.5t-5 12t-12 5t-12.5 -5t-5.5 -12zM588 701zM570 701q0 -7 5.5 -12.5t12.5 -5.5t12.5 5.5t5.5 12.5t-5.5 12t-12.5 5t-12.5 -5t-5.5 -12z" />
    <glyph glyph-name="tubiaozhizuomoban13" unicode="&#xe60f;" 
d="M353 497h-116q-19 0 -33 13.5t-14 33.5v114q0 19 14 32.5t33 13.5h116q19 0 32.5 -13.5t13.5 -32.5v-114q0 -20 -13.5 -33.5t-32.5 -13.5zM237 678q-9 0 -14.5 -6t-5.5 -14v-114q0 -9 5.5 -14.5t14.5 -5.5h116q8 0 14 5.5t6 14.5v114q0 8 -6 14t-14 6h-116zM570 497h-117
q-19 0 -32.5 13.5t-13.5 33.5v114q0 19 13.5 32.5t32.5 13.5h117q19 0 32.5 -13.5t13.5 -32.5v-114q0 -20 -13.5 -33.5t-32.5 -13.5zM453 678q-8 0 -14 -6t-6 -14v-114q0 -9 6 -14.5t14 -5.5h117q8 0 14 5.5t6 14.5v114q0 8 -6 14t-14 6h-117zM353 281h-116q-19 0 -33 13.5
t-14 32.5v114q0 19 14 32.5t33 13.5h116q19 0 32.5 -13.5t13.5 -32.5v-114q0 -19 -13.5 -32.5t-32.5 -13.5zM237 461q-9 0 -14.5 -5.5t-5.5 -14.5v-114q0 -8 5.5 -14t14.5 -6h116q8 0 14 6t6 14v114q0 9 -6 14.5t-14 5.5h-116zM570 281h-117q-19 0 -32.5 13.5t-13.5 32.5
v114q0 19 13.5 32.5t32.5 13.5h117q19 0 32.5 -13.5t13.5 -32.5v-114q0 -19 -13.5 -32.5t-32.5 -13.5zM453 461q-8 0 -14 -5.5t-6 -14.5v-114q0 -8 6 -14t14 -6h117q8 0 14 6t6 14v114q0 9 -6 14.5t-14 5.5h-117zM786 281h-116q-20 0 -33.5 13.5t-13.5 32.5v114
q0 19 13.5 32.5t33.5 13.5h116q19 0 32.5 -13.5t13.5 -32.5v-114q0 -19 -13.5 -32.5t-32.5 -13.5zM670 461q-9 0 -14.5 -5.5t-5.5 -14.5v-114q0 -8 5.5 -14t14.5 -6h116q8 0 14 6t6 14v114q0 9 -6 14.5t-14 5.5h-116zM353 64h-116q-19 0 -33 14t-14 33v114q0 19 14 32.5
t33 13.5h116q19 0 32.5 -13.5t13.5 -32.5v-114q0 -19 -13.5 -33t-32.5 -14zM237 245q-9 0 -14.5 -6t-5.5 -14v-114q0 -9 5.5 -14.5t14.5 -5.5h116q8 0 14 5.5t6 14.5v114q0 8 -6 14t-14 6h-116zM570 64h-117q-19 0 -32.5 14t-13.5 33v114q0 19 13.5 32.5t32.5 13.5h117
q19 0 32.5 -13.5t13.5 -32.5v-114q0 -19 -13.5 -33t-32.5 -14zM453 245q-8 0 -14 -6t-6 -14v-114q0 -9 6 -14.5t14 -5.5h117q8 0 14 5.5t6 14.5v114q0 8 -6 14t-14 6h-117zM786 64h-116q-20 0 -33.5 14t-13.5 33v114q0 19 13.5 32.5t33.5 13.5h116q19 0 32.5 -13.5
t13.5 -32.5v-114q0 -19 -13.5 -33t-32.5 -14zM670 245q-9 0 -14.5 -6t-5.5 -14v-114q0 -9 5.5 -14.5t14.5 -5.5h116q8 0 14 5.5t6 14.5v114q0 8 -6 14t-14 6h-116zM720 691zM708 690.5q0 -5.5 3.5 -9t9 -3.5t9.5 3.5t4 9t-4 9.5t-9.5 4t-9 -4t-3.5 -9.5zM786 704h-25v0
q-11 -2 -11 -13t11 -13v0h25q8 0 14 -6t6 -14v-25q0 -6 4 -9.5t9 -3.5t9 3.5t4 9.5v25q0 19 -13.5 32.5t-32.5 13.5zM832 562v0v0q0 6 -4 9.5t-9 3.5t-9 -3.5t-4 -9.5v0v0v0v-18q0 -9 -6 -14.5t-14 -5.5h-116q-9 0 -14.5 5.5t-5.5 14.5v114q0 8 5.5 14t14.5 6h14v0
q11 1 11 12.5t-11 12.5v1h-14q-20 0 -33.5 -13.5t-13.5 -33.5v-114q0 -19 13.5 -32.5t33.5 -13.5h116q19 0 32.5 13.5t13.5 32.5v18v0v1zM819 598zM806 598q0 -5 4 -9t9 -4t9 4t4 9t-4 9t-9 4t-9 -4t-4 -9z" />
    <glyph glyph-name="tubiaozhizuomoban14" unicode="&#xe610;" 
d="M593 454q48 21 79 63.5t37 95.5v0v3q0 5 -4 9t-9 4t-9 -4t-4 -9q-7 -68 -59 -112.5t-121 -40.5q-62 4 -108 48.5t-51 106.5q-6 70 37.5 123t111.5 61h1q5 0 9 4t4 9.5t-4 9.5t-9 4q-2 0 -3 -1v1q-80 -9 -130.5 -71.5t-42.5 -143.5q5 -52 36 -95t79 -65
q-122 -26 -203.5 -122t-87.5 -222q0 -7 5 -12t12 -5t12 5t5 12q6 133 103.5 226t232 93t231.5 -93t104 -226q0 -7 5 -12t12 -5t12 5t5 12q-6 126 -87 221t-201 123zM540 819zM526 818.5q0 -5.5 4 -9t9.5 -3.5t9.5 3.5t4 9t-4 9.5t-9.5 4t-9.5 -4t-4 -9.5zM697 661z
M684 661.5q0 -5.5 4 -9.5t9.5 -4t9 4t3.5 9.5t-3.5 9t-9 3.5t-9.5 -3.5t-4 -9zM578 804q67 -27 94 -95q4 -11 16 -7q5 1 7.5 6.5t0.5 10.5q-15 37 -43 65.5t-65 43.5q-5 3 -10.5 0.5t-7.5 -8.5q-3 -11 8 -16z" />
    <glyph glyph-name="tubiaozhizuomoban15" unicode="&#xe611;" 
d="M832 417v3v3v20q0 8 -5 13t-12.5 5t-12.5 -5t-5 -13v-20q0 -78 -55.5 -133.5t-133.5 -55.5h-81q-35 0 -60.5 -24t-28.5 -58l-4 -51l-84 94q-29 33 -75 42q-58 11 -85 57t-27 114v91q0 82 42 135.5t117 53.5h161q7 0 12 5t5 12.5t-5 12.5t-12 5h-161q-90 0 -142 -64
t-52 -160v-91q0 -80 35 -136t105 -69q35 -7 56 -31l88 -99q10 -11 24 -11q5 0 10 2q20 6 22 27l5 58q1 21 17 35.5t37 14.5h81q81 0 143 52t77 130q25 -12 40.5 -35.5t15.5 -51.5v-50q0 -32 -20 -56.5t-51 -30.5q-28 -5 -46 -25l-34 -38l-1 9q-1 22 -17.5 37.5t-38.5 15.5
h-45q-42 0 -71 31q-5 8 -14 8q-8 0 -13 -5t-5 -12q0 -8 6 -13h-1q40 -44 98 -44h45q8 0 14.5 -6t7.5 -15l2 -31q2 -17 18 -22q3 -2 8 -2q11 0 19 9l48 55q10 11 26 14q44 8 72 42.5t28 78.5v50q0 42 -24 75.5t-63 47.5zM605 688h3v0q61 0 111.5 -37t68.5 -96h1q3 -14 17 -14
q7 0 12 5.5t5 12.5q0 4 -1 7q-22 70 -82 113.5t-132 43.5v0h-3q-7 0 -12.5 -5t-5.5 -12.5t5.5 -12.5t12.5 -5zM544 705zM526 705.5q0 -7.5 5 -12.5t12.5 -5t12.5 5t5 12.5t-5 12.5t-12.5 5t-12.5 -5t-5 -12.5zM815 504zM797 504.5q0 -7.5 5 -12.5t12.5 -5t12.5 5t5 12.5
t-5 12.5t-12.5 5t-12.5 -5t-5 -12.5zM471.5 360q-39.5 0 -69 26.5t-34.5 65.5q-2 13 -15 13q-7 0 -11.5 -5.5t-3.5 -11.5q6 -50 44 -84t89 -34t89.5 34t44.5 84q1 6 -4 11.5t-11 5.5q-13 0 -15 -13q-5 -39 -34.5 -65.5t-69 -26.5z" />
    <glyph glyph-name="tubiaozhizuomoban16" unicode="&#xe612;" 
d="M399 729h-152q-33 0 -56.5 -23.5t-23.5 -56.5v-152q0 -33 23.5 -56.5t56.5 -23.5h152q33 0 56.5 23.5t23.5 56.5v152q0 33 -23.5 56.5t-56.5 23.5zM452 497q0 -22 -15.5 -37.5t-37.5 -15.5h-152q-22 0 -38 15.5t-16 37.5v152q0 22 16 38t38 16h152q22 0 37.5 -16
t15.5 -38v-152v0zM399 348h-152q-33 0 -56.5 -23t-23.5 -57v-152q0 -33 23.5 -56.5t56.5 -23.5h152q33 0 56.5 23.5t23.5 56.5v152q0 34 -23.5 57t-56.5 23zM452 116q0 -22 -15.5 -37.5t-37.5 -15.5h-152q-22 0 -38 15.5t-16 37.5v152q0 23 16 38.5t38 15.5h152
q22 0 37.5 -15.5t15.5 -38.5v-152v0zM780 348h-152q-33 0 -56.5 -23t-23.5 -57v-152q0 -33 23.5 -56.5t56.5 -23.5h152q33 0 56.5 23.5t23.5 56.5v152q0 34 -23.5 57t-56.5 23zM833 116q0 -22 -15.5 -37.5t-37.5 -15.5h-152q-22 0 -38 15.5t-16 37.5v152q0 23 16 38.5
t38 15.5h152q22 0 37.5 -15.5t15.5 -38.5v-152zM780 703q22 0 37.5 -16t15.5 -38q0 -5 4 -9t9.5 -4t9.5 4t4 9q0 33 -23.5 56.5t-56.5 23.5q-6 0 -10 -3.5t-4 -9t4 -9.5t10 -4zM846.5 583q-5.5 0 -9.5 -4t-4 -10v-72q0 -22 -15.5 -37.5t-37.5 -15.5h-152q-22 0 -38 15.5
t-16 37.5v152q0 22 16 38t38 16h76v0q9 3 9 13t-9 13v0h-76q-33 0 -56.5 -23.5t-23.5 -56.5v-152q0 -33 23.5 -56.5t56.5 -23.5h152q33 0 56.5 23.5t23.5 56.5v72q0 6 -4 10t-9.5 4zM846 609zM833 609.5q0 -5.5 4 -9.5t9.5 -4t9.5 4t4 9.5t-4 9.5t-9.5 4t-9.5 -4t-4 -9.5z
M740 716zM727 716q0 -6 3.5 -9.5t9 -3.5t9.5 3.5t4 9.5t-4 9.5t-9.5 3.5t-9 -3.5t-3.5 -9.5z" />
    <glyph glyph-name="tubiaozhizuomoban17" unicode="&#xe613;" 
d="M378 588zM364 588.5q0 -5.5 4 -10t10 -4.5t10 4.5t4 10t-4 10t-10 4.5t-10 -4.5t-4 -10zM676 603h-198q-6 0 -10.5 -4.5t-4.5 -10t4.5 -10t10.5 -4.5h198q6 0 10 4.5t4 10t-4 10t-10 4.5zM676 489h-312q-6 0 -10 -4t-4 -10t4 -10t10 -4h312q6 0 10 4t4 10t-4 10t-10 4z
M676 745q53 0 90.5 -37.5t37.5 -90.5q0 -6 4 -10t10 -4t10 4t4 10q0 64 -45.5 110t-110.5 46q-6 0 -10 -4t-4 -10t4 -10t10 -4zM626 759zM612 759q0 -6 4.5 -10t10 -4t10 4t4.5 10t-4.5 10t-10 4t-10 -4t-4.5 -10zM818 532q-6 0 -10 -4.5t-4 -9.5v-3v0v-366
q0 -53 -37.5 -90.5t-90.5 -37.5h-326q-53 0 -90.5 37.5t-37.5 90.5v468q0 53 37.5 90.5t90.5 37.5h225v0h2q6 0 10 4t4 10t-4 10t-10 4h-2v0h-225q-65 0 -110.5 -46t-45.5 -110v-468q0 -65 45.5 -110.5t110.5 -45.5h326q65 0 110.5 45.5t45.5 110.5v366v0v3q0 5 -4 9.5
t-10 4.5zM818 567zM804 567q0 -6 4 -10t10 -4t10 4t4 10t-4 10t-10 4t-10 -4t-4 -10z" />
    <glyph glyph-name="icon-test" unicode="&#xe62e;" 
d="M863 135h-717v366h30v-337h687v-29zM878 267h-30v337h-687v29h717v-366zM874 257h-21l-103 102l21 21l92 -92l92 92l21 -21zM253 388l-92 92l-92 -92l-21 21l102 102h21l103 -102z" />
    <glyph glyph-name="icon-test1" unicode="&#xe62f;" 
d="M281 145h-217v28h205l450 450h231v-28h-219zM950 145h-231l-145 145l20 20l137 -137h219v-28zM406 458l-137 137h-205v28h217l145 -145zM862 501l-20 20l88 88l-88 89l20 20l98 -99v-20zM862 50l-20 20l88 89l-88 88l20 20l98 -98v-20z" />
    <glyph glyph-name="icon-test2" unicode="&#xe630;" 
d="M555 -62l-267 267h-173v358h173l267 267v-892zM142 233h158l228 -229v760l-228 -229h-157v-302h-1zM642 498l19 20l248 -248l-19 -20zM642 270l247 248l20 -20l-248 -248z" />
    <glyph glyph-name="icon-test3" unicode="&#xe631;" 
d="M604 -66l-270 270h-174v360h174l270 270v-900zM188 232h158l230 -230v764l-230 -230h-158v-304zM701 232v27q51 0 88 36.5t37 88.5t-37 88.5t-88 36.5v27q63 0 107.5 -44.5t44.5 -107.5t-44.5 -107.5t-107.5 -44.5z" />
    <glyph glyph-name="icon-test4" unicode="&#xe632;" 
d="M540 -66l-270 270h-174v360h174l270 270v-900zM124 232h158l230 -230v764l-230 -230h-158v-304zM637 232v27q51 0 88 36.5t37 88.5t-37 88.5t-88 36.5v27q63 0 107.5 -44.5t44.5 -107.5t-44.5 -107.5t-107.5 -44.5zM637 93v27q109 0 186 77.5t77 186.5t-77 186.5
t-186 77.5v27q120 0 205.5 -85.5t85.5 -205.5t-85.5 -205.5t-205.5 -85.5z" />
  </font>
</defs>
</svg>
