<?xml version="1.0" standalone="no"?>
<!DOCTYPE svg PUBLIC "-//W3C//DTD SVG 1.1//EN" "http://www.w3.org/Graphics/SVG/1.1/DTD/svg11.dtd" >
<svg xmlns="http://www.w3.org/2000/svg">
<metadata>
Created by FontForge 20120731 at Tue Apr 25 15:58:05 2017
 By admin
</metadata>
<defs>
<font id="iconfont" horiz-adv-x="1024" >
  <font-face 
    font-family="iconfont"
    font-weight="500"
    font-stretch="normal"
    units-per-em="1024"
    panose-1="2 0 6 3 0 0 0 0 0 0"
    ascent="896"
    descent="-128"
    x-height="792"
    bbox="0 -128 1024 896"
    underline-thickness="0"
    underline-position="0"
    unicode-range="U+0078-E68D"
  />
<missing-glyph 
 />
    <glyph glyph-name=".notdef" 
 />
    <glyph glyph-name=".notdef" 
 />
    <glyph glyph-name=".null" horiz-adv-x="0" 
 />
    <glyph glyph-name="nonmarkingreturn" horiz-adv-x="341" 
 />
    <glyph glyph-name="x" unicode="x" horiz-adv-x="1001" 
d="M281 543q-27 -1 -53 -1h-83q-18 0 -36.5 -6t-32.5 -18.5t-23 -32t-9 -45.5v-76h912v41q0 16 -0.5 30t-0.5 18q0 13 -5 29t-17 29.5t-31.5 22.5t-49.5 9h-133v-97h-438v97zM955 310v-52q0 -23 0.5 -52t0.5 -58t-10.5 -47.5t-26 -30t-33 -16t-31.5 -4.5q-14 -1 -29.5 -0.5
t-29.5 0.5h-32l-45 128h-439l-44 -128h-29h-34q-20 0 -45 1q-25 0 -41 9.5t-25.5 23t-13.5 29.5t-4 30v167h911zM163 247q-12 0 -21 -8.5t-9 -21.5t9 -21.5t21 -8.5q13 0 22 8.5t9 21.5t-9 21.5t-22 8.5zM316 123q-8 -26 -14 -48q-5 -19 -10.5 -37t-7.5 -25t-3 -15t1 -14.5
t9.5 -10.5t21.5 -4h37h67h81h80h64h36q23 0 34 12t2 38q-5 13 -9.5 30.5t-9.5 34.5q-5 19 -11 39h-368zM336 498v228q0 11 2.5 23t10 21.5t20.5 15.5t34 6h188q31 0 51.5 -14.5t20.5 -52.5v-227h-327z" />
    <glyph glyph-name="angel" unicode="&#xe670;" 
d="M512 288zM96 288q0 -172 122 -294t294 -122t294 122t122 294t-122 294t-294 122t-294 -122t-122 -294zM512 -64q-116 0 -217 52t-168 142q48 -115 152.5 -186.5t232.5 -71.5t232.5 71.5t152.5 186.5q-67 -90 -168 -142t-217 -52zM266 441q-9 -10 -9 -22q0 -14 10 -24
t24 -10q12 0 22 9q20 19 47.5 19t46.5 -19q10 -10 24 -10t23.5 10t9.5 23.5t-10 23.5q-16 16 -43.5 27.5t-50.5 11.5t-50.5 -11.5t-43.5 -27.5zM758 441q-16 16 -43.5 27.5t-50.5 11.5t-50.5 -11.5t-43.5 -27.5q-9 -10 -9 -22q0 -14 9.5 -24t23.5 -10q13 0 23 9q19 19 47 19
t47 -19q10 -10 23.5 -10t23.5 10t10 23.5t-10 23.5zM601 188q-10 -27 -34.5 -43.5t-54 -16.5t-54 16.5t-35.5 43.5q-1 5 -5 11t-16 14t-25.5 3t-16.5 -18t1 -23l3 -10q18 -45 58.5 -73t90 -28t90 28t58.5 73q2 4 3.5 11t-2 21t-17.5 19t-25 -1.5t-15 -16.5zM512 832
q115 0 206 -16q-91 -16 -206 -16t-206 16q91 16 206 16zM512 896q-146 0 -249 -23.5t-103 -56.5t103 -56.5t249 -23.5t249 23.5t103 56.5t-103 56.5t-249 23.5z" />
    <glyph glyph-name="celebrity" unicode="&#xe671;" 
d="M512 384zM0 384q0 -104 40.5 -199t109 -163.5t163.5 -109t199 -40.5t199 40.5t163.5 109t109 163.5t40.5 199t-40.5 199t-109 163.5t-163.5 109t-199 40.5t-199 -40.5t-163.5 -109t-109 -163.5t-40.5 -199zM512 64q87 0 160.5 43t116.5 116.5t43 160.5h-640
q0 -87 43 -160.5t116.5 -116.5t160.5 -43zM384 91q16 -7 32 -12v305h-32v-293zM608 384v-305q16 5 32 12v293h-32zM830 352q2 16 2 32h-640q0 -16 2 -32h636zM512 -64q-142 0 -265 65t-203 176q60 -137 186.5 -221t281.5 -84t281.5 84t186.5 221q-80 -111 -203 -176
t-265 -65zM371 628l-35 77l-35 -77l-77 -14l56 -56l-14 -77l70 35l70 -35l-14 77l56 56zM800 614l-77 14l-35 77l-35 -77l-77 -14l56 -56l-14 -77l70 35l70 -35l-14 77z" />
    <glyph glyph-name="amazed" unicode="&#xe672;" 
d="M512 384zM0 384q0 -139 68.5 -257t186.5 -186.5t257 -68.5t257 68.5t186.5 186.5t68.5 257t-68.5 257t-186.5 186.5t-257 68.5t-257 -68.5t-186.5 -186.5t-68.5 -257zM672 512zM544 512q0 -53 37.5 -90.5t90.5 -37.5t90.5 37.5t37.5 90.5t-37.5 90.5t-90.5 37.5
t-90.5 -37.5t-37.5 -90.5zM672 512zM608 512q0 -26 19 -45t45 -19t45 19t19 45t-19 45t-45 19t-45 -19t-19 -45zM352 512zM224 512q0 -53 37.5 -90.5t90.5 -37.5t90.5 37.5t37.5 90.5t-37.5 90.5t-90.5 37.5t-90.5 -37.5t-37.5 -90.5zM352 512zM288 512q0 -26 19 -45t45 -19
t45 19t19 45t-19 45t-45 19t-45 -19t-19 -45zM512 160zM416 160q0 -40 28 -68t68 -28t68 28t28 68t-28 68t-68 28t-68 -28t-28 -68zM512 192q56 0 95 -43q1 10 1 11q0 40 -28 68t-68 28t-68 -28t-28 -68q0 -1 1 -11q16 18 43.5 30.5t51.5 12.5zM512 -64q-142 0 -265 65
t-203 176q60 -137 186.5 -221t281.5 -84t281.5 84t186.5 221q-80 -111 -203 -176t-265 -65zM760 702l-83 48q-4 2 -8 2q-7 0 -11.5 -4.5t-4.5 -11.5q0 -9 8 -14l83 -48q4 -2 8 -2q7 0 11.5 4.5t4.5 11.5q0 9 -8 14zM347 750l-83 -48q-8 -5 -8 -14q0 -7 4.5 -11.5t11.5 -4.5
q4 0 8 2l83 48q8 5 8 14q0 4 -2 8q-5 8 -14 8q-4 0 -8 -2z" />
    <glyph glyph-name="alien" unicode="&#xe673;" 
d="M512 384zM0 384q0 -139 68.5 -257t186.5 -186.5t257 -68.5t257 68.5t186.5 186.5t68.5 257t-68.5 257t-186.5 186.5t-257 68.5t-257 -68.5t-186.5 -186.5t-68.5 -257zM512 -64q-142 0 -265 65t-203 176q60 -137 186.5 -221t281.5 -84t281.5 84t186.5 221
q-80 -111 -203 -176t-265 -65zM565 373v0q30 -31 88 -16.5t109 65.5t65.5 109t-16.5 88v0q-30 31 -88 16.5t-109 -65.5t-65.5 -109t16.5 -88v0zM459 373v0q31 30 16.5 88t-65.5 109t-109 65.5t-88 -16.5v0v0q-31 -30 -16.5 -88t65.5 -109t109 -65.5t88 16.5zM811 619
q-30 31 -88 16.5t-109 -65.5q-52 -51 -66 -110q21 34 49 62q58 58 124 77.5t106 -8.5q-5 18 -16 28zM212 619q-10 -10 -16 -28q40 28 106 8.5t124 -77.5q29 -28 50 -62q-15 59 -66 110t-109 65.5t-89 -16.5zM480 256zM448 256q0 -13 9.5 -22.5t22.5 -9.5t22.5 9.5t9.5 22.5
t-9.5 22.5t-22.5 9.5t-22.5 -9.5t-9.5 -22.5zM544 256zM512 256q0 -13 9.5 -22.5t22.5 -9.5t22.5 9.5t9.5 22.5t-9.5 22.5t-22.5 9.5t-22.5 -9.5t-9.5 -22.5zM426 121q-9 -10 -9 -22q0 -14 10 -24t24 -10q12 0 22 9q20 19 47.5 19t46.5 -19q10 -10 24 -10t23.5 10t9.5 23.5
t-10 23.5q-16 16 -43.5 27.5t-50.5 11.5t-50.5 -11.5t-43.5 -27.5z" />
    <glyph glyph-name="angry" unicode="&#xe674;" 
d="M512 384zM0 384q0 -139 68.5 -257t186.5 -186.5t257 -68.5t257 68.5t186.5 186.5t68.5 257t-68.5 257t-186.5 186.5t-257 68.5t-257 -68.5t-186.5 -186.5t-68.5 -257zM826 128q-23 111 -111 183.5t-203 72.5t-203 -72.5t-111 -183.5h628zM640 357q-16 7 -32 12v-241h32
v229zM384 357v-229h32v241q-16 -5 -32 -12zM512 352q106 0 190 -62.5t115 -161.5h9q-23 111 -111 183.5t-203 72.5t-203 -72.5t-111 -183.5h9q31 99 115 161.5t190 62.5zM512 -64q-142 0 -265 65t-203 176q60 -137 186.5 -221t281.5 -84t281.5 84t186.5 221
q-80 -111 -203 -176t-265 -65zM440 638l-83 48q-4 2 -8 2q-7 0 -11.5 -4.5t-4.5 -11.5q0 -9 8 -14l83 -48q4 -2 8 -2q7 0 11.5 4.5t4.5 11.5q0 9 -8 14zM667 686l-83 -48q-8 -5 -8 -14q0 -7 4.5 -11.5t11.5 -4.5q4 0 8 2l83 48q8 5 8 14q0 4 -2 8q-5 8 -14 8q-4 0 -8 -2z
M576 544q0 -40 28 -68t68 -28t68 28t28 68q0 15 -6 31zM609 549l-0.5 -2t-0.5 -3q0 -26 19 -45t45 -19t45 19t19 45q0 12 -6 26zM448 544q0 -40 -28 -68t-68 -28t-68 28t-28 68q0 15 6 31zM415 549l0.5 -2t0.5 -3q0 -26 -19 -45t-45 -19t-45 19t-19 45q0 12 6 26z" />
    <glyph glyph-name="capitalist" unicode="&#xe675;" 
d="M512 384zM0 384q0 -104 40.5 -199t109 -163.5t163.5 -109t199 -40.5t199 40.5t163.5 109t109 163.5t40.5 199t-40.5 199t-109 163.5t-163.5 109t-199 40.5t-199 -40.5t-163.5 -109t-109 -163.5t-40.5 -199zM512 64q87 0 160.5 43t116.5 116.5t43 160.5h-640
q0 -87 43 -160.5t116.5 -116.5t160.5 -43zM384 91q16 -7 32 -12v305h-32v-293zM608 384v-305q16 5 32 12v293h-32zM830 352q2 16 2 32h-640q0 -16 2 -32h636zM512 -64q-142 0 -265 65t-203 176q60 -137 186.5 -221t281.5 -84t281.5 84t186.5 221q-80 -111 -203 -176
t-265 -65zM368 702v1v1v16q0 7 -4.5 11.5t-11.5 4.5t-11.5 -4.5t-4.5 -11.5v-16v-1v-1q-21 -5 -34.5 -20t-13.5 -34q0 -23 18.5 -39.5t45.5 -16.5q13 0 22.5 -7t9.5 -17t-9.5 -17t-22.5 -7t-22.5 7t-9.5 17q0 7 -4.5 11.5t-11.5 4.5t-11.5 -4.5t-4.5 -11.5q0 -19 13.5 -34
t34.5 -20v-18q0 -7 4.5 -11.5t11.5 -4.5t11.5 4.5t4.5 11.5v18q21 5 34.5 20t13.5 34q0 23 -18.5 39.5t-45.5 16.5q-13 0 -22.5 7t-9.5 17t9.5 17t22.5 7t22.5 -7t9.5 -17q0 -7 4.5 -11.5t11.5 -4.5t11.5 4.5t4.5 11.5q0 19 -13.5 34t-34.5 20zM688 702v1v1v16
q0 7 -4.5 11.5t-11.5 4.5t-11.5 -4.5t-4.5 -11.5v-16v-1v-1q-21 -5 -34.5 -20t-13.5 -34q0 -23 18.5 -39.5t45.5 -16.5q13 0 22.5 -7t9.5 -17t-9.5 -17t-22.5 -7t-22.5 7t-9.5 17q0 7 -4.5 11.5t-11.5 4.5t-11.5 -4.5t-4.5 -11.5q0 -19 13.5 -34t34.5 -20v-18
q0 -7 4.5 -11.5t11.5 -4.5t11.5 4.5t4.5 11.5v18q21 5 34.5 20t13.5 34q0 23 -18.5 39.5t-45.5 16.5q-13 0 -22.5 7t-9.5 17t9.5 17t22.5 7t22.5 -7t9.5 -17q0 -7 4.5 -11.5t11.5 -4.5t11.5 4.5t4.5 11.5q0 19 -13.5 34t-34.5 20z" />
    <glyph glyph-name="confused" unicode="&#xe676;" 
d="M512 384zM0 384q0 -139 68.5 -257t186.5 -186.5t257 -68.5t257 68.5t186.5 186.5t68.5 257t-68.5 257t-186.5 186.5t-257 68.5t-257 -68.5t-186.5 -186.5t-68.5 -257zM672 544zM576 544q0 -40 28 -68t68 -28t68 28t28 68t-28 68t-68 28t-68 -28t-28 -68zM352 544z
M256 544q0 -40 28 -68t68 -28t68 28t28 68t-28 68t-68 28t-68 -28t-28 -68zM672 544zM608 544q0 -26 19 -45t45 -19t45 19t19 45t-19 45t-45 19t-45 -19t-19 -45zM352 544zM288 544q0 -26 19 -45t45 -19t45 19t19 45t-19 45t-45 19t-45 -19t-19 -45zM704 160
q0 -13 -9.5 -22.5t-22.5 -9.5h-192q-13 0 -22.5 9.5t-9.5 22.5t9.5 22.5t22.5 9.5h192q13 0 22.5 -9.5t9.5 -22.5zM512 -64q-142 0 -265 65t-203 176q60 -137 186.5 -221t281.5 -84t281.5 84t186.5 221q-80 -111 -203 -176t-265 -65z" />
    <glyph glyph-name="cool" unicode="&#xe677;" 
d="M512 384zM0 384q0 -139 68.5 -257t186.5 -186.5t257 -68.5t257 68.5t186.5 186.5t68.5 257t-68.5 257t-186.5 186.5t-257 68.5t-257 -68.5t-186.5 -186.5t-68.5 -257zM781 307q-6 1 -11 1q-10 0 -18.5 -6t-11.5 -15q-26 -69 -96.5 -118.5t-144.5 -49.5q-45 0 -87 15
q-6 2 -11 2q-14 0 -23 -9t-9 -23q0 -9 6 -18t15 -12q62 -24 125.5 -19t119 30t99.5 72t66 109q2 5 2 10q0 10 -6.5 18.5t-14.5 12.5zM512 -64q-142 0 -265 65t-203 176q60 -137 186.5 -221t281.5 -84t281.5 84t186.5 221q-80 -111 -203 -176t-265 -65zM768 640h-512
q-26 0 -45 -19t-19 -45v-64q0 -40 28 -68t68 -28h96q40 0 68 28t28 68v64h64v-64q0 -40 28 -68t68 -28h96q40 0 68 28t28 68v64q0 26 -19 45t-45 19zM784 608h-96q-7 0 -11.5 -4.5t-4.5 -11.5t4.5 -11.5t11.5 -4.5h96q7 0 11.5 4.5t4.5 11.5t-4.5 11.5t-11.5 4.5zM432 608
h-96q-7 0 -11.5 -4.5t-4.5 -11.5t4.5 -11.5t11.5 -4.5h96q7 0 11.5 4.5t4.5 11.5t-4.5 11.5t-11.5 4.5z" />
    <glyph glyph-name="happy" unicode="&#xe678;" 
d="M512 384zM0 384q0 -139 68.5 -257t186.5 -186.5t257 -68.5t257 68.5t186.5 186.5t68.5 257t-68.5 257t-186.5 186.5t-257 68.5t-257 -68.5t-186.5 -186.5t-68.5 -257zM672 544zM576 544q0 -40 28 -68t68 -28t68 28t28 68t-28 68t-68 28t-68 -28t-28 -68zM352 544z
M256 544q0 -40 28 -68t68 -28t68 28t28 68t-28 68t-68 28t-68 -28t-28 -68zM672 544zM608 544q0 -26 19 -45t45 -19t45 19t19 45t-19 45t-45 19t-45 -19t-19 -45zM352 544zM288 544q0 -26 19 -45t45 -19t45 19t19 45t-19 45t-45 19t-45 -19t-19 -45zM726 245
q-31 -49 -93.5 -83t-120.5 -34t-120.5 34t-93.5 83q-8 12 -19 30t-14.5 20t-12.5 -6q-7 -6 -12 -10q-14 -10 -14 -26t7 -26l7 -11q43 -70 115 -111t157 -41t157 41t115 111q1 2 3.5 5.5t7 13t6 17.5t-2.5 17t-14 14q-16 8 -30.5 -1.5t-20.5 -23.5zM512 -64q-142 0 -265 65
t-203 176q60 -137 186.5 -221t281.5 -84t281.5 84t186.5 221q-80 -111 -203 -176t-265 -65z" />
    <glyph glyph-name="drunk" unicode="&#xe679;" 
d="M512 384zM0 384q0 -139 68.5 -257t186.5 -186.5t257 -68.5t257 68.5t186.5 186.5t68.5 257t-68.5 257t-186.5 186.5t-257 68.5t-257 -68.5t-186.5 -186.5t-68.5 -257zM672 576zM576 576q0 -40 28 -68t68 -28t68 28t28 68t-28 68t-68 28t-68 -28t-28 -68zM352 512z
M256 512q0 -40 28 -68t68 -28t68 28t28 68t-28 68t-68 28t-68 -28t-28 -68zM704 608zM672 608q0 -13 9.5 -22.5t22.5 -9.5t22.5 9.5t9.5 22.5t-9.5 22.5t-22.5 9.5t-22.5 -9.5t-9.5 -22.5zM320 480zM288 480q0 -13 9.5 -22.5t22.5 -9.5t22.5 9.5t9.5 22.5t-9.5 22.5
t-22.5 9.5t-22.5 -9.5t-9.5 -22.5zM512 -64q-142 0 -265 65t-203 176q60 -137 186.5 -221t281.5 -84t281.5 84t186.5 221q-80 -111 -203 -176t-265 -65zM759 229q-13 10 -24.5 9t-18.5 -7l-8 -7q-32 -32 -68 -32q-44 0 -68 18l-75 63q-52 47 -113 47q-66 0 -113 -47
q-1 -1 -3 -2.5t-6 -7.5t-5.5 -11.5t0.5 -13t8 -14.5q13 -11 24 -10t19 7l8 7q28 28 68 28t68 -28l75 -63q42 -37 113 -37q65 0 113 48l3 3t6 8.5t5.5 12.5t-0.5 14t-8 15z" />
    <glyph glyph-name="devil" unicode="&#xe67a;" 
d="M512 384zM0 384q0 -139 68.5 -257t186.5 -186.5t257 -68.5t257 68.5t186.5 186.5t68.5 257t-68.5 257t-186.5 186.5t-257 68.5t-257 -68.5t-186.5 -186.5t-68.5 -257zM198 320q23 -111 111 -183.5t203 -72.5t203 72.5t111 183.5h-628zM384 91q16 -7 32 -12v241h-32v-229z
M640 91v229h-32v-241q16 5 32 12zM817 288q6 17 9 32h-628q3 -14 9 -32h610zM512 -64q-142 0 -265 65t-203 176q60 -137 186.5 -221t281.5 -84t281.5 84t186.5 221q-80 -111 -203 -176t-265 -65zM440 638l-83 48q-4 2 -8 2q-7 0 -11.5 -4.5t-4.5 -11.5q0 -9 8 -14l83 -48
q4 -2 8 -2q7 0 11.5 4.5t4.5 11.5q0 9 -8 14zM667 686l-83 -48q-8 -5 -8 -14q0 -7 4.5 -11.5t11.5 -4.5q4 0 8 2l83 48q8 5 8 14q0 4 -2 8q-5 8 -14 8q-4 0 -8 -2zM576 544q0 -40 28 -68t68 -28t68 28t28 68q0 15 -6 31zM609 549l-0.5 -2t-0.5 -3q0 -26 19 -45t45 -19t45 19
t19 45q0 12 -6 26zM448 544q0 -40 -28 -68t-68 -28t-68 28t-28 68q0 15 6 31zM415 549l0.5 -2t0.5 -3q0 -26 -19 -45t-45 -19t-45 19t-19 45q0 12 6 26zM80 896q-7 0 -11.5 -4.5t-4.5 -11.5v-248q16 29 45.5 66t54.5 60l-68 122q-7 16 -16 16zM944 896q-9 0 -16 -16
l-67 -122q24 -23 53.5 -60t45.5 -66v248v0q0 7 -4.5 11.5t-11.5 4.5z" />
    <glyph glyph-name="crying" unicode="&#xe67b;" 
d="M512 384zM0 384q0 -139 68.5 -257t186.5 -186.5t257 -68.5t257 68.5t186.5 186.5t68.5 257t-68.5 257t-186.5 186.5t-257 68.5t-257 -68.5t-186.5 -186.5t-68.5 -257zM576 544q0 -40 28 -68t68 -28t68 28t28 68l-153 77q-16 -12 -27.5 -34.5t-11.5 -42.5zM409 621
l-153 -77q0 -40 28 -68t68 -28t68 28t28 68q0 48 -39 77zM300 138q31 48 94 82.5t120.5 34.5t120.5 -34.5t94 -82.5q8 -13 19 -30q11 -19 14.5 -20.5t11.5 6.5q7 6 13 10q27 23 0 63q-43 69 -115.5 110.5t-157 41.5t-156.5 -41.5t-115 -110.5q-2 -2 -4 -5.5t-6.5 -13
t-6 -17.5t2 -17t14.5 -14q16 -8 30.5 2t20.5 22t6 14zM512 -64q-142 0 -265 65t-203 176q60 -137 186.5 -221t281.5 -84t281.5 84t186.5 221q-80 -111 -203 -176t-265 -65zM649 604q-17 -7 -29 -24.5t-12 -35.5q0 -26 19 -45t45 -19t45 19t19 45q0 8 -3 17zM375 604l-84 -43
q-3 -8 -3 -17q0 -26 19 -45t45 -19t45 19t19 45q0 20 -11.5 36t-29.5 24zM832 320q0 5 -1 10.5t-2.5 10t-4.5 10t-5 9t-7 9.5l-7.5 9t-9 10t-8.5 9l-9.5 9.5l-9.5 9.5l-9.5 -9.5l-9.5 -9.5t-8.5 -9t-9 -10l-7.5 -9t-7 -9.5t-5 -9t-4.5 -10t-2.5 -10t-1 -10.5q0 -26 19 -45
t45 -19t45 19t19 45zM768 288q-20 0 -38.5 14t-23.5 34q-2 -9 -2 -16q0 -26 19 -45t45 -19t45 19t19 45q0 7 -2 16q-5 -20 -23.5 -34t-38.5 -14zM320 416q0 5 -1 10.5t-2.5 10t-4.5 10t-5 9t-7 9.5l-7.5 9t-9 10t-8.5 9l-9.5 9.5l-9.5 9.5l-9.5 -9.5l-9.5 -9.5t-8.5 -9
t-9 -10l-7.5 -9t-7 -9.5t-5 -9t-4.5 -10t-2.5 -10t-1 -10.5q0 -26 19 -45t45 -19t45 19t19 45zM256 384q-20 0 -38.5 14t-23.5 34q-2 -9 -2 -16q0 -26 19 -45t45 -19t45 19t19 45q0 7 -2 16q-5 -20 -23.5 -34t-38.5 -14z" />
    <glyph glyph-name="joking" unicode="&#xe67c;" 
d="M512 384zM0 384q0 -139 68.5 -257t186.5 -186.5t257 -68.5t257 68.5t186.5 186.5t68.5 257t-68.5 257t-186.5 186.5t-257 68.5t-257 -68.5t-186.5 -186.5t-68.5 -257zM672 544zM576 544q0 -40 28 -68t68 -28t68 28t28 68t-28 68t-68 28t-68 -28t-28 -68zM352 544z
M256 544q0 -40 28 -68t68 -28t68 28t28 68t-28 68t-68 28t-68 -28t-28 -68zM672 544zM608 544q0 -26 19 -45t45 -19t45 19t19 45t-19 45t-45 19t-45 -19t-19 -45zM352 544zM288 544q0 -26 19 -45t45 -19t45 19t19 45t-19 45t-45 19t-45 -19t-19 -45zM768 224
q0 -13 -9.5 -22.5t-22.5 -9.5h-448q-13 0 -22.5 9.5t-9.5 22.5t9.5 22.5t22.5 9.5h448q13 0 22.5 -9.5t9.5 -22.5zM512 -64q-142 0 -265 65t-203 176q60 -137 186.5 -221t281.5 -84t281.5 84t186.5 221q-80 -111 -203 -176t-265 -65zM768 256h-224v-80q0 -46 33 -79t79 -33
t79 33t33 79v80zM544 256h224v-32h-224v32zM640 144q0 -7 4.5 -11.5t11.5 -4.5t11.5 4.5t4.5 11.5v112h-32v-112z" />
    <glyph glyph-name="in-love" unicode="&#xe67d;" 
d="M512 384zM0 384q0 -104 40.5 -199t109 -163.5t163.5 -109t199 -40.5t199 40.5t163.5 109t109 163.5t40.5 199t-40.5 199t-109 163.5t-163.5 109t-199 40.5t-199 -40.5t-163.5 -109t-109 -163.5t-40.5 -199zM512 64q87 0 160.5 43t116.5 116.5t43 160.5h-640
q0 -87 43 -160.5t116.5 -116.5t160.5 -43zM384 91q16 -7 32 -12v305h-32v-293zM608 384v-305q16 5 32 12v293h-32zM830 352q2 16 2 32h-640q0 -16 2 -32h636zM512 -64q-142 0 -265 65t-203 176q60 -137 186.5 -221t281.5 -84t281.5 84t186.5 221q-80 -111 -203 -176
t-265 -65zM399 654.5q-17 17.5 -41 17.5q-12 0 -25.5 -6.5t-20.5 -16.5q-8 10 -21.5 16.5t-24.5 6.5q-25 0 -42 -17.5t-17 -41.5t17 -42l88 -88l87 88q17 18 17 42t-17 41.5zM800 654.5q-17 17.5 -42 17.5q-12 0 -25 -6.5t-21 -16.5q-7 10 -20.5 16.5t-25.5 6.5
q-24 0 -41 -17.5t-17 -41.5t17 -42l87 -88l88 88q17 18 17 42t-17 41.5z" />
    <glyph glyph-name="kiss-1" unicode="&#xe67e;" 
d="M512 384zM0 384q0 -139 68.5 -257t186.5 -186.5t257 -68.5t257 68.5t186.5 186.5t68.5 257t-68.5 257t-186.5 186.5t-257 68.5t-257 -68.5t-186.5 -186.5t-68.5 -257zM512 -64q-142 0 -265 65t-203 176q60 -137 186.5 -221t281.5 -84t281.5 84t186.5 221
q-80 -111 -203 -176t-265 -65zM576 352q-64 0 -64 -64q0 28 -19 46t-45 18q-34 0 -59.5 -24.5t-50.5 -58t-50 -45.5q14 -49 80 -88.5t144 -39.5t144.5 39.5t79.5 88.5q-21 10 -40.5 33t-33 43t-36 36t-50.5 16zM448 224q0 -13 19 -22.5t45 -9.5t45 9.5t19 22.5t-19 22.5
t-45 9.5t-45 -9.5t-19 -22.5zM266 601q-9 -10 -9 -22q0 -14 10 -24t24 -10q12 0 22 9q20 19 47.5 19t46.5 -19q10 -10 24 -10t23.5 10t9.5 23.5t-10 23.5q-16 16 -43.5 27.5t-50.5 11.5t-50.5 -11.5t-43.5 -27.5zM758 601q-16 16 -43.5 27.5t-50.5 11.5t-50.5 -11.5
t-43.5 -27.5q-9 -10 -9 -22q0 -14 9.5 -24t23.5 -10q13 0 23 9q19 19 47 19t47 -19q10 -10 23.5 -10t23.5 10t10 23.5t-10 23.5z" />
    <glyph glyph-name="ninja" unicode="&#xe67f;" 
d="M688 470q-18 -18 -44 -18t-45 19t-19 45t18 44l317 317q18 18 44 18q27 0 45.5 -18.5t18.5 -45.5q0 -26 -18 -44zM892 855l-45 -46l113 -67l45 45zM892 855l-23 -23l114 -68l22 23zM426 560q18 -18 18 -44t-19 -45t-45 -19t-44 18l-317 317q-18 18 -18 44q0 27 18.5 45.5
t45.5 18.5q26 0 44 -18zM41 764l46 -45l67 113l-45 45zM41 764l23 -23l68 114l-23 22zM512 384zM0 384q0 -104 40.5 -199t109 -163.5t163.5 -109t199 -40.5t199 40.5t163.5 109t109 163.5t40.5 199t-40.5 199t-109 163.5t-163.5 109t-199 40.5t-199 -40.5t-163.5 -109
t-109 -163.5t-40.5 -199v0zM672 544zM576 544q0 -40 28 -68t68 -28t68 28t28 68t-28 68t-68 28t-68 -28t-28 -68zM352 544zM256 544q0 -40 28 -68t68 -28t68 28t28 68t-28 68t-68 28t-68 -28t-28 -68zM672 544zM608 544q0 -26 19 -45t45 -19t45 19t19 45t-19 45t-45 19
t-45 -19t-19 -45zM352 544zM288 544q0 -26 19 -45t45 -19t45 19t19 45t-19 45t-45 19t-45 -19t-19 -45zM512 896q-104 0 -199 -40.5t-163.5 -109t-109 -163.5t-40.5 -199t40.5 -199t109 -163.5t163.5 -109t199 -40.5t199 40.5t163.5 109t109 163.5t40.5 199t-40.5 199
t-109 163.5t-163.5 109t-199 40.5zM512 416q-130 0 -241 17t-175 46.5t-64 64.5t64 64.5t175 46.5t241 17t241 -17t175 -46.5t64 -64.5t-64 -64.5t-175 -46.5t-241 -17zM512 -64q-142 0 -265 65t-203 176q60 -137 186.5 -221t281.5 -84t281.5 84t186.5 221
q-80 -111 -203 -176t-265 -65z" />
    <glyph glyph-name="kiss-2" unicode="&#xe680;" 
d="M512 384zM0 384q0 -139 68.5 -257t186.5 -186.5t257 -68.5t257 68.5t186.5 186.5t68.5 257t-68.5 257t-186.5 186.5t-257 68.5t-257 -68.5t-186.5 -186.5t-68.5 -257zM352 544zM256 544q0 -40 28 -68t68 -28t68 28t28 68t-28 68t-68 28t-68 -28t-28 -68zM352 544z
M288 544q0 -26 19 -45t45 -19t45 19t19 45t-19 45t-45 19t-45 -19t-19 -45zM512 -64q-142 0 -265 65t-203 176q60 -137 186.5 -221t281.5 -84t281.5 84t186.5 221q-80 -111 -203 -176t-265 -65zM758 569q-16 16 -43.5 27.5t-50.5 11.5t-50.5 -11.5t-43.5 -27.5
q-9 -10 -9 -22q0 -14 9.5 -24t23.5 -10q13 0 23 9q19 19 47 19t47 -19q10 -10 23.5 -10t23.5 10t10 23.5t-10 23.5zM704 240q0 33 -23.5 56.5t-56.5 23.5q-3 0 -11 -1l-2 0.5t-3 0.5q-13 0 -22.5 -9.5t-9.5 -22.5t9.5 -22.5t22.5 -9.5h16q7 0 11.5 -4.5t4.5 -11.5
t-4.5 -11.5t-11.5 -4.5h-16q-13 0 -22.5 -9.5t-9.5 -22.5t9.5 -22.5t22.5 -9.5h16q7 0 11.5 -4.5t4.5 -11.5t-4.5 -11.5t-11.5 -4.5h-16q-13 0 -22.5 -9.5t-9.5 -22.5t9.5 -22.5t22.5 -9.5q1 0 4 1h1q8 -1 11 -1q33 0 56.5 23.5t23.5 56.5q0 27 -16 48q16 21 16 48z
M943 395.5q-17 17.5 -41 17.5q-12 0 -25.5 -6.5t-20.5 -16.5q-8 10 -21.5 16.5t-24.5 6.5q-25 0 -42 -17.5t-17 -42t17 -41.5l88 -88l87 88q17 17 17 41.5t-17 42z" />
    <glyph glyph-name="monster" unicode="&#xe681;" 
d="M512 384zM0 384q0 -139 68.5 -257t186.5 -186.5t257 -68.5t257 68.5t186.5 186.5t68.5 257t-68.5 257t-186.5 186.5t-257 68.5t-257 -68.5t-186.5 -186.5t-68.5 -257zM352 544q0 -40 47 -68t113 -28t113 28t47 68t-47 68t-113 28t-113 -28t-47 -68zM512 544zM448 544
q0 -26 19 -45t45 -19t45 19t19 45t-19 45t-45 19t-45 -19t-19 -45zM512 -64q-142 0 -265 65t-203 176q60 -137 186.5 -221t281.5 -84t281.5 84t186.5 221q-80 -111 -203 -176t-265 -65zM672 288h-320q-26 0 -45 -19t-19 -45v-32q0 -26 19 -45t45 -19h320q26 0 45 19t19 45
v32q0 26 -19 45t-45 19zM672 288h-320q-26 0 -45 -19t-19 -45v-32q0 26 19 45t45 19h320q26 0 45 -19t19 -45v32q0 26 -19 45t-45 19zM384 256q0 -13 9.5 -22.5t22.5 -9.5t22.5 9.5t9.5 22.5v32h-64v-32zM480 256q0 -13 9.5 -22.5t22.5 -9.5t22.5 9.5t9.5 22.5v32h-64v-32z
M576 288v-32q0 -13 9.5 -22.5t22.5 -9.5t22.5 9.5t9.5 22.5v32h-64z" />
    <glyph glyph-name="nerd" unicode="&#xe682;" 
d="M512 384zM0 384q0 -139 68.5 -257t186.5 -186.5t257 -68.5t257 68.5t186.5 186.5t68.5 257t-68.5 257t-186.5 186.5t-257 68.5t-257 -68.5t-186.5 -186.5t-68.5 -257zM704 512zM672 512q0 -13 9.5 -22.5t22.5 -9.5t22.5 9.5t9.5 22.5t-9.5 22.5t-22.5 9.5t-22.5 -9.5
t-9.5 -22.5zM320 512zM288 512q0 -13 9.5 -22.5t22.5 -9.5t22.5 9.5t9.5 22.5t-9.5 22.5t-22.5 9.5t-22.5 -9.5t-9.5 -22.5zM704 160q0 -13 -9.5 -22.5t-22.5 -9.5h-192q-13 0 -22.5 9.5t-9.5 22.5t9.5 22.5t22.5 9.5h192q13 0 22.5 -9.5t9.5 -22.5zM512 -64q-142 0 -265 65
t-203 176q60 -137 186.5 -221t281.5 -84t281.5 84t186.5 221q-80 -111 -203 -176t-265 -65zM800 672h-192q-18 0 -35 -11.5t-24 -27.5q-18 7 -37 7t-37 -7q-7 16 -24 27.5t-35 11.5h-192q-26 0 -45 -19t-19 -45v-192q0 -26 19 -45t45 -19h192q26 0 45 19t19 45v128
q0 13 9.5 22.5t22.5 9.5t22.5 -9.5t9.5 -22.5v-128q0 -26 19 -45t45 -19h192q26 0 45 19t19 45v192q0 26 -19 45t-45 19zM416 416h-192v192h192v-192zM800 416h-192v192h192v-192z" />
    <glyph glyph-name="puzzled" unicode="&#xe683;" 
d="M512 384zM0 384q0 -139 68.5 -257t186.5 -186.5t257 -68.5t257 68.5t186.5 186.5t68.5 257t-68.5 257t-186.5 186.5t-257 68.5t-257 -68.5t-186.5 -186.5t-68.5 -257zM672 480zM576 480q0 -40 28 -68t68 -28t68 28t28 68t-28 68t-68 28t-68 -28t-28 -68zM352 480z
M256 480q0 -40 28 -68t68 -28t68 28t28 68t-28 68t-68 28t-68 -28t-28 -68zM672 480zM608 480q0 -26 19 -45t45 -19t45 19t19 45t-19 45t-45 19t-45 -19t-19 -45zM352 480zM288 480q0 -26 19 -45t45 -19t45 19t19 45t-19 45t-45 19t-45 -19t-19 -45zM696 116q-3 -9 -12 -15
t-18 -6q-5 0 -11 2l-180 66q-9 3 -15 12t-6 18q0 13 9.5 22.5t22.5 9.5q5 0 11 -2l180 -66q9 -3 15 -12t6 -18q0 -6 -2 -11zM512 -64q-142 0 -265 65t-203 176q60 -137 186.5 -221t281.5 -84t281.5 84t186.5 221q-80 -111 -203 -176t-265 -65zM416 720q0 -7 -4.5 -11.5
t-11.5 -4.5h-96q-7 0 -11.5 4.5t-4.5 11.5t4.5 11.5t11.5 4.5h96q7 0 11.5 -4.5t4.5 -11.5zM704 720q0 -7 -4.5 -11.5t-11.5 -4.5h-96q-7 0 -11.5 4.5t-4.5 11.5t4.5 11.5t11.5 4.5h96q7 0 11.5 -4.5t4.5 -11.5z" />
    <glyph glyph-name="pirate" unicode="&#xe684;" 
d="M512 384zM0 384q0 -104 40.5 -199t109 -163.5t163.5 -109t199 -40.5t198.5 40.5t163 109t109 163.5t40.5 199t-40.5 198.5t-109 163t-163 109t-198.5 40.5t-199 -40.5t-163.5 -109t-109 -163t-40.5 -198.5v0zM672 480zM576 480v0q0 -40 28 -68t67.5 -28t67.5 28t28 68v0
v0q0 39 -28 67.5t-67.5 28.5t-67.5 -28.5t-28 -67.5v0zM672 480zM608 480v0q0 -27 18.5 -45.5t45 -18.5t45.5 18.5t19 45.5v0v0q0 26 -19 45t-45.5 19t-45 -19t-18.5 -45v0zM511.5 -64q-142.5 0 -265 65t-202.5 176q60 -137 186.5 -221t281 -84t281 84t187.5 221
q-80 -111 -203 -176t-265.5 -65zM935 671q-71 104 -182.5 164t-241 60t-241 -60t-181.5 -164h846zM704 160q0 -13 -9.5 -22.5t-22.5 -9.5h-192q-14 0 -23 9.5t-9 22.5t9 22.5t23 9.5h192q13 0 22.5 -9.5t9.5 -22.5zM255 765q0 1 0.5 1.5l0.5 0.5q0 1 -0.5 2.5l-0.5 1.5
q0 4 -1 7q-1 2 -3 5.5t-3.5 5l-4.5 4.5q-1 0 -2 1l-1 1l-166 96q-8 4 -16 4q-14 0 -23 -9t-9 -23q0 -18 16 -27l63 -37h-73v0q-13 0 -22.5 -9t-9.5 -22.5t9.5 -23t22.5 -9.5v0h192q1 0 2 0.5t2 0.5l6 2t5.5 2.5t5.5 2.5l4 6l1 1t2 1v1.5v0.5q2 3 2 6q1 3 1 6zM222 805
l-30 18q-52 -38 -94 -88h43q37 40 81 70zM352 608q-53 0 -90.5 -37.5t-37.5 -90.5q0 -2 1 -15l-223 -129q3 -32 11 -67l236 135q16 -21 46 -36.5t57 -15.5q53 0 90.5 37.5t37.5 90.5t-37.5 90.5t-90.5 37.5z" />
    <glyph glyph-name="sad" unicode="&#xe685;" 
d="M512 384zM0 384q0 -139 68.5 -257t186.5 -186.5t257 -68.5t257 68.5t186.5 186.5t68.5 257t-68.5 257t-186.5 186.5t-257 68.5t-257 -68.5t-186.5 -186.5t-68.5 -257zM576 544q0 -40 28 -68t68 -28t68 28t28 68l-153 77q-16 -12 -27.5 -34.5t-11.5 -42.5zM409 621
l-153 -77q0 -40 28 -68t68 -28t68 28t28 68q0 48 -39 77zM300 138q31 48 94 82.5t120.5 34.5t120.5 -34.5t94 -82.5q8 -13 19 -30q11 -19 14.5 -20.5t11.5 6.5q7 6 13 10q27 23 0 63q-43 69 -115.5 110.5t-157 41.5t-156.5 -41.5t-115 -110.5q-2 -2 -4 -5.5t-6.5 -13
t-6 -17.5t2 -17t14.5 -14q16 -8 30.5 2t20.5 22t6 14zM512 -64q-142 0 -265 65t-203 176q60 -137 186.5 -221t281.5 -84t281.5 84t186.5 221q-80 -111 -203 -176t-265 -65zM649 604q-17 -7 -29 -24.5t-12 -35.5q0 -26 19 -45t45 -19t45 19t19 45q0 8 -3 17zM375 604l-84 -43
q-3 -8 -3 -17q0 -26 19 -45t45 -19t45 19t19 45q0 20 -11.5 36t-29.5 24z" />
    <glyph glyph-name="shy" unicode="&#xe686;" 
d="M512 384zM0 384q0 -139 68.5 -257t186.5 -186.5t257 -68.5t257 68.5t186.5 186.5t68.5 257t-68.5 257t-186.5 186.5t-257 68.5t-257 -68.5t-186.5 -186.5t-68.5 -257zM704 544zM576 544q0 -53 37.5 -90.5t90.5 -37.5t90.5 37.5t37.5 90.5t-37.5 90.5t-90.5 37.5
t-90.5 -37.5t-37.5 -90.5zM752 592zM704 592q0 -20 14 -34t34 -14t34 14t14 34t-14 34t-34 14t-34 -14t-14 -34zM320 544zM192 544q0 -53 37.5 -90.5t90.5 -37.5t90.5 37.5t37.5 90.5t-37.5 90.5t-90.5 37.5t-90.5 -37.5t-37.5 -90.5zM368 592zM320 592q0 -20 14 -34t34 -14
t34 14t14 34t-14 34t-34 14t-34 -14t-14 -34zM512 -64q-142 0 -265 65t-203 176q60 -137 186.5 -221t281.5 -84t281.5 84t186.5 221q-80 -111 -203 -176t-265 -65zM704 448q-73 0 -121 57q13 -39 46 -64t75 -25t75 25t46 64q-48 -57 -121 -57zM601 220q-10 -25 -36 -42.5
t-53 -17.5t-53 17.5t-36 42.5q-10 26 -17.5 31t-29.5 -3q-13 -5 -16 -18t0 -23l4 -10q18 -45 58 -73t90 -28t90 28t58 73q2 4 4 11t-1.5 21t-17.5 19t-25 -1.5t-15 -16.5zM800 352zM736 352q0 -26 19 -45t45 -19t45 19t19 45t-19 45t-45 19t-45 -19t-19 -45zM224 352z
M160 352q0 -26 19 -45t45 -19t45 19t19 45t-19 45t-45 19t-45 -19t-19 -45zM320 448q-73 0 -121 57q13 -39 46 -64t75 -25t75 25t46 64q-48 -57 -121 -57z" />
    <glyph glyph-name="rofl" unicode="&#xe687;" 
d="M512 384zM0 384q0 -139 68.5 -257t186.5 -186.5t257 -68.5t257 68.5t186.5 186.5t68.5 257t-68.5 257t-186.5 186.5t-257 68.5t-257 -68.5t-186.5 -186.5t-68.5 -257zM738.5 157.5q93.5 93.5 93.5 226.5t-94 226l-452 -452q93 -94 226 -94t226.5 93.5zM629 86q17 7 31 14
l-216 216l-22 -23zM580 452l216 -216q7 14 14 31l-208 208zM760 586q-10 13 -22 24l-452 -452q11 -12 24 -22zM512 -64q-142 0 -265 65t-203 176q60 -137 186.5 -221t281.5 -84t281.5 84t186.5 221q-80 -111 -203 -176t-265 -65zM207 341q0 -14 10 -24t23.5 -10t23.5 10
t10 24q0 27 19.5 46.5t47.5 19.5q13 0 23 10t10 24t-10 23.5t-23 9.5q-56 0 -95 -39t-39 -94zM555 689q-55 0 -94 -39t-39 -95q0 -13 9.5 -23t23.5 -10t24 10t10 23q0 28 19.5 47.5t46.5 19.5q14 0 24 10t10 23.5t-10 23.5t-24 10z" />
    <glyph glyph-name="speechless-1" unicode="&#xe688;" 
d="M512 384zM0 384q0 -139 68.5 -257t186.5 -186.5t257 -68.5t257 68.5t186.5 186.5t68.5 257t-68.5 257t-186.5 186.5t-257 68.5t-257 -68.5t-186.5 -186.5t-68.5 -257zM672 544zM576 544q0 -40 28 -68t68 -28t68 28t28 68t-28 68t-68 28t-68 -28t-28 -68zM352 544z
M256 544q0 -40 28 -68t68 -28t68 28t28 68t-28 68t-68 28t-68 -28t-28 -68zM672 544zM608 544q0 -26 19 -45t45 -19t45 19t19 45t-19 45t-45 19t-45 -19t-19 -45zM352 544zM288 544q0 -26 19 -45t45 -19t45 19t19 45t-19 45t-45 19t-45 -19t-19 -45zM512 -64q-142 0 -265 65
t-203 176q60 -137 186.5 -221t281.5 -84t281.5 84t186.5 221q-80 -111 -203 -176t-265 -65zM768 192q0 -13 -9.5 -22.5t-22.5 -9.5h-448q-13 0 -22.5 9.5t-9.5 22.5t9.5 22.5t22.5 9.5h448q13 0 22.5 -9.5t9.5 -22.5zM320 192h64v-32h-64v32zM384 224h64v-32h-64v32z
M448 192h64v-32h-64v32zM512 224h64v-32h-64v32zM576 192h64v-32h-64v32zM640 224h64v-32h-64v32zM704 192v-32h32q13 0 22.5 9.5t9.5 22.5h-64zM288 224q-13 0 -22.5 -9.5t-9.5 -22.5h64v32h-32zM736 224h-32v-96q0 -13 9.5 -22.5t22.5 -9.5t22.5 9.5t9.5 22.5v64
q0 13 -9.5 22.5t-22.5 9.5zM736 96q-13 0 -22.5 9.5t-9.5 22.5v-32q0 -13 9.5 -22.5t22.5 -9.5t22.5 9.5t9.5 22.5v32q0 -13 -9.5 -22.5t-22.5 -9.5z" />
    <glyph glyph-name="sleeping" unicode="&#xe689;" 
d="M512 384zM0 384q0 -139 68.5 -257t186.5 -186.5t257 -68.5t257 68.5t186.5 186.5t68.5 257t-68.5 257t-186.5 186.5t-257 68.5t-257 -68.5t-186.5 -186.5t-68.5 -257zM672 128zM608 128q0 -26 19 -45t45 -19t45 19t19 45t-19 45t-45 19t-45 -19t-19 -45zM672 160
q22 0 39 -13.5t23 -34.5q2 9 2 16q0 26 -19 45t-45 19t-45 -19t-19 -45q0 -7 2 -16q6 21 23 34.5t39 13.5zM880 256h-69l80 131q5 9 5 13q0 7 -4.5 11.5t-11.5 4.5h-96q-7 0 -11.5 -4.5t-4.5 -11.5t4.5 -11.5t11.5 -4.5h68l-79 -128q-5 -9 -5 -16t4.5 -11.5t11.5 -4.5h96
q7 0 11.5 4.5t4.5 11.5t-4.5 11.5t-11.5 4.5zM1008 512h-37l48 67q5 9 5 13q0 7 -4.5 11.5t-11.5 4.5h-64q-7 0 -11.5 -4.5t-4.5 -11.5t4.5 -11.5t11.5 -4.5h36l-47 -64q-5 -9 -5 -16t4.5 -11.5t11.5 -4.5h64q7 0 11.5 4.5t4.5 11.5t-4.5 11.5t-11.5 4.5zM512 -64
q-142 0 -265 65t-203 176q60 -137 186.5 -221t281.5 -84t281.5 84t186.5 221q-80 -111 -203 -176t-265 -65zM266 505q-9 -10 -9 -22q0 -14 10 -24t24 -10q12 0 22 9q20 19 47.5 19t46.5 -19q10 -10 24 -10t23.5 10t9.5 23.5t-10 23.5q-16 16 -43.5 27.5t-50.5 11.5
t-50.5 -11.5t-43.5 -27.5zM758 505q-16 16 -43.5 27.5t-50.5 11.5t-50.5 -11.5t-43.5 -27.5q-9 -10 -9 -22q0 -14 9.5 -24t23.5 -10q13 0 23 9q19 19 47 19t47 -19q10 -10 23.5 -10t23.5 10t10 23.5t-10 23.5z" />
    <glyph glyph-name="speechless-2" unicode="&#xe68a;" 
d="M512 384zM0 384q0 -139 68.5 -257t186.5 -186.5t257 -68.5t257 68.5t186.5 186.5t68.5 257t-68.5 257t-186.5 186.5t-257 68.5t-257 -68.5t-186.5 -186.5t-68.5 -257zM672 544zM576 544q0 -40 28 -68t68 -28t68 28t28 68t-28 68t-68 28t-68 -28t-28 -68zM352 544z
M256 544q0 -40 28 -68t68 -28t68 28t28 68t-28 68t-68 28t-68 -28t-28 -68zM672 544zM608 544q0 -26 19 -45t45 -19t45 19t19 45t-19 45t-45 19t-45 -19t-19 -45zM352 544zM288 544q0 -26 19 -45t45 -19t45 19t19 45t-19 45t-45 19t-45 -19t-19 -45zM512 -64q-142 0 -265 65
t-203 176q60 -137 186.5 -221t281.5 -84t281.5 84t186.5 221q-80 -111 -203 -176t-265 -65zM710 183l-70 41l70 41q12 6 15.5 19t-3.5 24l-32 56q-9 16 -28 16q-8 0 -16 -5l-134 -77l-134 77q-8 5 -16 5q-19 0 -28 -16l-32 -56q-4 -7 -4 -16q0 -18 16 -27l70 -41l-70 -41
q-16 -9 -16 -27q0 -9 4 -16l32 -56q9 -16 28 -16q8 0 16 5l134 77l134 -77q8 -5 16 -5q19 0 28 16l32 56q4 7 4 16q0 18 -16 27zM690 121q-9 -16 -28 -16q-8 0 -16 4l-134 77l-134 -77q-8 -4 -16 -4q-19 0 -28 16l-31 52q-5 -8 -5 -18q0 -8 4 -15l32 -56q9 -16 28 -16
q8 0 16 5l134 77l134 -77q8 -5 16 -5q19 0 28 16l32 56q4 7 4 15q0 10 -5 18zM314 265l70 -41l33 18l-103 59q-7 4 -11 10l-1 -3q-4 -7 -4 -16q0 -18 16 -27zM721 311q-4 -6 -11 -10l-105 -61l35 -16l70 41q12 6 15.5 19t-3.5 24z" />
    <glyph glyph-name="wink" unicode="&#xe68b;" 
d="M512 384zM0 384q0 -139 68.5 -257t186.5 -186.5t257 -68.5t257 68.5t186.5 186.5t68.5 257t-68.5 257t-186.5 186.5t-257 68.5t-257 -68.5t-186.5 -186.5t-68.5 -257zM352 544zM256 544q0 -40 28 -68t68 -28t68 28t28 68t-28 68t-68 28t-68 -28t-28 -68zM352 544z
M288 544q0 -26 19 -45t45 -19t45 19t19 45t-19 45t-45 19t-45 -19t-19 -45zM800 416q-13 0 -22.5 -9.5t-9.5 -22.5q0 -106 -75 -181t-181 -75q-13 0 -22.5 -9.5t-9.5 -22.5t9.5 -22.5t22.5 -9.5q133 0 226.5 93.5t93.5 226.5q0 13 -9.5 22.5t-22.5 9.5zM512 -64
q-142 0 -265 65t-203 176q60 -137 186.5 -221t281.5 -84t281.5 84t186.5 221q-80 -111 -203 -176t-265 -65zM758 569q-16 16 -43.5 27.5t-50.5 11.5t-50.5 -11.5t-43.5 -27.5q-9 -10 -9 -22q0 -14 9.5 -24t23.5 -10q13 0 23 9q19 19 47 19t47 -19q10 -10 23.5 -10t23.5 10
t10 23.5t-10 23.5z" />
    <glyph glyph-name="yawn" unicode="&#xe68c;" 
d="M512 384zM0 384q0 -139 68.5 -257t186.5 -186.5t257 -68.5t257 68.5t186.5 186.5t68.5 257t-68.5 257t-186.5 186.5t-257 68.5t-257 -68.5t-186.5 -186.5t-68.5 -257zM320 320q0 -106 56.5 -181t135.5 -75t135.5 75t56.5 181t-56.5 181t-135.5 75t-135.5 -75t-56.5 -181z
M512 512q73 0 127 -64.5t63 -159.5q2 18 2 32q0 106 -56 181t-136 75t-136 -75t-56 -181q0 -14 2 -32q9 95 63 159.5t127 64.5zM512 -64q-142 0 -265 65t-203 176q60 -137 186.5 -221t281.5 -84t281.5 84t186.5 221q-80 -111 -203 -176t-265 -65zM266 729q-9 -10 -9 -22
q0 -14 10 -24t24 -10q12 0 22 9q20 19 47.5 19t46.5 -19q10 -10 24 -10t23.5 10t9.5 23.5t-10 23.5q-16 16 -43.5 27.5t-50.5 11.5t-50.5 -11.5t-43.5 -27.5zM758 729q-16 16 -43.5 27.5t-50.5 11.5t-50.5 -11.5t-43.5 -27.5q-9 -10 -9 -22q0 -14 9.5 -24t23.5 -10
q13 0 23 9q19 19 47 19t47 -19q10 -10 23.5 -10t23.5 10t10 23.5t-10 23.5zM369 150q27 -40 64 -63t79 -23t79 23t64 63q-11 17 -34.5 29.5t-44.5 12.5q-36 0 -64 -25q-11 10 -30 17.5t-34 7.5q-21 0 -44.5 -12.5t-34.5 -29.5z" />
    <glyph glyph-name="vampire" unicode="&#xe68d;" 
d="M512 384zM0 384q0 -139 68.5 -257t186.5 -186.5t257 -68.5t257 68.5t186.5 186.5t68.5 257t-68.5 257t-186.5 186.5t-257 68.5t-257 -68.5t-186.5 -186.5t-68.5 -257zM512 -64q-142 0 -265 65t-203 176q60 -137 186.5 -221t281.5 -84t281.5 84t186.5 221
q-80 -111 -203 -176t-265 -65zM576 544q0 -40 28 -68t68 -28t68 28t28 68q0 15 -6 31zM448 544q0 -40 -28 -68t-68 -28t-68 28t-28 68q0 15 6 31zM730 570l-121 -21l-0.5 -2t-0.5 -3q0 -26 19 -45t45 -19t45 19t19 45q0 12 -6 26zM294 570q-6 -12 -6 -26q0 -26 19 -45
t45 -19t45 19t19 45q0 1 -0.5 3l-0.5 2zM726 309q-31 -49 -94 -83t-120.5 -34t-120.5 34t-94 83q-8 12 -18 30q-12 18 -15 20t-12 -6q-7 -6 -12 -10q-14 -10 -14 -26t7 -26l7 -11q43 -70 115 -111t156.5 -41t156.5 41t116 111q1 2 3.5 5.5t6.5 13t5.5 17.5t-2 17t-13.5 14
q-33 16 -56 -33zM726 309q-31 -49 -94 -83t-120.5 -34t-120.5 34t-94 83q-8 12 -18 30q-12 18 -15 20t-12 -6q-7 -6 -12 -10q-14 -10 -14 -26t7 -26l7 -11q43 -70 115 -111t156.5 -41t156.5 41t116 111q1 2 3.5 5.5t6.5 13t5.5 17.5t-2 17t-13.5 14q-33 16 -56 -33zM720 96
q7 0 11.5 4.5t4.5 11.5v216q-24 -40 -44.5 -61t-51.5 -40l64 -115q7 -16 16 -16zM304 96q9 0 16 16l64 116q-33 19 -50.5 37t-45.5 59v-212v0q0 -7 4.5 -11.5t11.5 -4.5zM800 -32q0 5 -1 10.5t-2.5 10t-4.5 10t-5 9t-7 9.5l-7.5 9t-9 10t-8.5 9l-9.5 9.5l-9.5 9.5l-9.5 -9.5
l-9.5 -9.5t-8.5 -9t-9 -10l-7.5 -9t-7 -9.5t-5 -9t-4.5 -10t-2.5 -10t-1 -10.5q0 -26 19 -45t45 -19t45 19t19 45zM736 -64q-20 0 -38.5 14t-23.5 34q-2 -9 -2 -16q0 -26 19 -45t45 -19t45 19t19 45q0 7 -2 16q-5 -20 -23.5 -34t-38.5 -14zM512 896q-95 0 -182 -33.5
t-156 -94.5q22 13 55.5 22.5t58.5 9.5q59 0 118 -37.5t84 -90.5l14 -30l4 -8v2q-3 14 3.5 14t12 5.5t8.5 10.5l2 6q25 53 84 90.5t118 37.5q25 0 58.5 -9.5t55.5 -22.5q-69 61 -156 94.5t-182 33.5z" />
  </font>
</defs>
</svg>
